<svg width="24" height="24" viewBox="0 0 24 24" xmlns="http://www.w3.org/2000/svg">
    <g fill="none" fill-rule="evenodd">
        <path d="M0 0h24v24H0z"/>
        <path class="fill" d="m1.768.75 3.506 3.508.015-.001L7.782 6.75l-.016-.001 10.5 10.5.017.001 1.98 1.98-.01.006 2.728 2.727-1.768 1.768-3.981-3.982L5.5 19.75a3.25 3.25 0 0 1-3.25-3.25v-9c0-.766.265-1.47.708-2.025L0 2.518 1.768.75zm12.964 16.499L4.778 7.295a.75.75 0 0 0-.028.205v9c0 .414.336.75.75.75l9.232-.001zm7.018-8.543V16.5c0 .213-.02.421-.06.623l-2.44-2.44v-3.478l2.5-2.499zM14.67.17l5.333 5.333-5.333 5.334V6.749h-3.354l-2.5-2.499 5.854-.001V.17z" fill-rule="nonzero"/>
    </g>
</svg>
