<svg width="32" height="32" viewBox="0 0 32 32" xmlns="http://www.w3.org/2000/svg">
    <g fill="none" fill-rule="evenodd">
        <path class="main-shape" fill="#949494" d="M25.444 3.556a3 3 0 0 1 3 3v18.888a3 3 0 0 1-3 3H6.556a3 3 0 0 1-3-3V6.556a3 3 0 0 1 3-3h18.888zM15.548 5.63H7.444c-.427 0-.794.152-1.098.457-.305.304-.457.67-.457 1.098v17.63c0 .428.152.794.457 1.098.304.305.67.457 1.098.457H19.89c.428 0 .794-.152 1.099-.457.304-.304.456-.67.456-1.098v-2.14H19.89v2.14H7.444V7.185h8.104V5.63zm1.748 14.777h-7.259v1.556h7.26v-1.556zm-.518-8.555h-1.556c0 1.365.45 2.558 1.348 3.578.9 1.02 2.005 1.624 3.319 1.814v2.645h1.555v-2.645c1.331-.19 2.442-.795 3.332-1.814.89-1.02 1.335-2.213 1.335-3.578h-1.555c0 1.074-.376 1.99-1.128 2.75-.752.76-1.674 1.139-2.765 1.139a3.738 3.738 0 0 1-2.747-1.141c-.759-.76-1.138-1.677-1.138-2.748zm-1.556 5.444h-5.185v1.556h5.185v-1.556zM20.667 5.89c-.5 0-.927.177-1.282.531a1.746 1.746 0 0 0-.533 1.284v4.148c0 .501.177.929.531 1.283.355.355.779.532 1.272.532.51 0 .94-.177 1.295-.532.354-.354.531-.782.531-1.283V7.704c0-.502-.177-.93-.531-1.284a1.749 1.749 0 0 0-1.283-.531z" />
    </g>
</svg>
